<?xml version="1.0" encoding="utf-8"?>
<!-- Generator: Adobe Illustrator 16.0.0, SVG Export Plug-In . SVG Version: 6.00 Build 0)  -->
<!DOCTYPE svg PUBLIC "-//W3C//DTD SVG 1.1//EN" "http://www.w3.org/Graphics/SVG/1.1/DTD/svg11.dtd">
<svg version="1.1" id="Layer_1" xmlns="http://www.w3.org/2000/svg" xmlns:xlink="http://www.w3.org/1999/xlink" x="0px" y="0px"
	 width="51px" height="65.5px" viewBox="0 0 51 65.5" enable-background="new 0 0 51 65.5" xml:space="preserve">
<g>
	<path d="M46,0H25.5H5C2.2,0,0,2.2,0,5v44.4c0,1.8,1,3.5,2.6,4.4l20.5,11.1c0.7,0.4,1.6,0.6,2.4,0.6s1.6-0.2,2.4-0.6l20.5-11.1
		c1.6-0.9,2.6-2.6,2.6-4.4V5C51,2.2,48.8,0,46,0z"/>
	<path opacity="0.2" fill="#FFFFFF" d="M25.5,0H5C2.2,0,0,2.2,0,5v44.4c0,1.8,1,3.5,2.6,4.4l20.5,11.1c0.7,0.4,1.6,0.6,2.4,0.6V0z"
		/>
</g>
<g>
	<polygon fill="#FFFFFF" points="10.9,31.4 13.3,35.5 19.8,31.7 23.2,29.8 23.2,33.6 23.2,41.2 27.9,41.2 27.9,33.6 27.9,29.8 
		31.3,31.7 37.8,35.5 40.2,31.4 33.6,27.6 30.3,25.6 33.6,23.7 40.2,19.9 37.8,15.8 31.3,19.6 27.9,21.5 27.9,17.7 27.9,10.1 
		23.2,10.1 23.2,17.7 23.2,21.5 19.8,19.6 13.3,15.8 10.9,19.9 17.4,23.7 20.8,25.6 17.4,27.6 	"/>
</g>
</svg>
