<?xml version="1.0" encoding="utf-8"?>
<!-- Generator: Adobe Illustrator 16.0.0, SVG Export Plug-In . SVG Version: 6.00 Build 0)  -->
<!DOCTYPE svg PUBLIC "-//W3C//DTD SVG 1.1//EN" "http://www.w3.org/Graphics/SVG/1.1/DTD/svg11.dtd">
<svg version="1.1" id="Layer_1" xmlns="http://www.w3.org/2000/svg" xmlns:xlink="http://www.w3.org/1999/xlink" x="0px" y="0px"
	 width="255.8px" height="65.5px" viewBox="0 0 255.8 65.5" enable-background="new 0 0 255.8 65.5" xml:space="preserve">
<g>
	<path d="M46,0H25.5H5C2.2,0,0,2.2,0,5v44.4c0,1.8,1,3.5,2.6,4.4l20.5,11.1c0.7,0.4,1.6,0.6,2.4,0.6s1.6-0.2,2.4-0.6l20.5-11.1
		c1.6-0.9,2.6-2.6,2.6-4.4V5C51,2.2,48.8,0,46,0z"/>
	<path opacity="0.2" fill="#FFFFFF" d="M25.5,0H5C2.2,0,0,2.2,0,5v44.4c0,1.8,1,3.5,2.6,4.4l20.5,11.1c0.7,0.4,1.6,0.6,2.4,0.6V0z"
		/>
</g>
<g>
	<path d="M64.9,29.7v11.6h-5.4V10.1h11.9c1.8,0,3.4,0.2,4.8,0.7c1.4,0.5,2.6,1.2,3.6,2.1c1,0.9,1.7,1.9,2.2,3.1
		c0.5,1.2,0.8,2.5,0.8,4c0,1.5-0.3,2.9-0.8,4.1c-0.5,1.2-1.2,2.2-2.2,3c-1,0.8-2.2,1.5-3.6,1.9c-1.4,0.4-3,0.7-4.8,0.7H64.9z
		 M64.9,25.3h6.5c1,0,1.9-0.1,2.7-0.4c0.8-0.3,1.4-0.6,1.9-1.1c0.5-0.5,0.8-1,1.1-1.7c0.2-0.6,0.3-1.4,0.3-2.1
		c0-0.7-0.1-1.4-0.3-2.1c-0.2-0.7-0.6-1.3-1.1-1.8c-0.5-0.5-1.1-0.9-1.9-1.2c-0.8-0.3-1.6-0.5-2.7-0.5h-6.5V25.3z"/>
	<g>
		<polygon points="105.8,41 105.9,41 111.5,41 99.7,10 94.9,10 83.1,41 88.7,41 97.3,16.4 		"/>
	</g>
	<path d="M137.2,14.4h-9.7v26.8h-5.4V14.4h-9.6v-4.4h24.7V14.4z"/>
	<path d="M166.7,31.1c-0.1,1.5-0.5,2.9-1.1,4.2s-1.4,2.4-2.4,3.4s-2.3,1.7-3.7,2.2c-1.5,0.5-3.2,0.8-5.1,0.8c-1.9,0-3.6-0.3-5.2-1
		c-1.5-0.7-2.9-1.7-4-3s-1.9-2.8-2.5-4.6c-0.6-1.8-0.9-3.8-0.9-6.1v-2.5c0-2.2,0.3-4.3,0.9-6.1c0.6-1.8,1.5-3.4,2.6-4.7s2.5-2.3,4-3
		c1.6-0.7,3.3-1,5.3-1c1.9,0,3.5,0.3,4.9,0.8c1.4,0.5,2.6,1.3,3.6,2.2c1,1,1.8,2.1,2.3,3.4c0.6,1.3,0.9,2.7,1.1,4.3h-5.4
		c-0.1-1-0.3-1.9-0.6-2.7c-0.3-0.8-0.7-1.5-1.2-2c-0.5-0.5-1.2-1-1.9-1.3c-0.8-0.3-1.7-0.4-2.8-0.4c-1.2,0-2.3,0.2-3.2,0.7
		c-0.9,0.5-1.7,1.1-2.3,2c-0.6,0.9-1.1,2-1.4,3.2s-0.5,2.7-0.5,4.4v2.6c0,1.6,0.1,3,0.4,4.2c0.3,1.3,0.7,2.4,1.3,3.3
		c0.6,0.9,1.3,1.6,2.2,2.1s2,0.7,3.2,0.7c1.2,0,2.2-0.1,3-0.4c0.8-0.3,1.5-0.7,2-1.2c0.5-0.5,0.9-1.2,1.2-1.9
		c0.3-0.8,0.5-1.7,0.6-2.7H166.7z"/>
	<path d="M198.5,41.2h-5.4V27.4h-13.9v13.9h-5.4V10.1h5.4v13h13.9v-13h5.4V41.2z"/>
	<path d="M225.3,27.3h-12.8v9.6h15v4.3h-20.4V10.1h20.2v4.4h-14.8V23h12.8V27.3z"/>
	<path d="M250.4,33.2c0-0.6-0.1-1.2-0.3-1.7c-0.2-0.5-0.5-0.9-1-1.4c-0.5-0.4-1.2-0.8-2-1.2c-0.9-0.4-2-0.8-3.3-1.2
		c-1.5-0.4-2.9-0.9-4.1-1.5c-1.3-0.6-2.3-1.2-3.2-2c-0.9-0.8-1.6-1.6-2.1-2.6s-0.8-2.1-0.8-3.4c0-1.3,0.3-2.4,0.8-3.5s1.3-2,2.3-2.7
		c1-0.8,2.1-1.4,3.5-1.8c1.4-0.4,2.9-0.6,4.5-0.6c1.8,0,3.3,0.3,4.7,0.8c1.4,0.5,2.6,1.2,3.5,2.1c1,0.9,1.7,1.9,2.2,3
		c0.5,1.1,0.8,2.4,0.8,3.7h-5.4c0-0.8-0.1-1.5-0.4-2.1c-0.2-0.6-0.6-1.2-1.1-1.6s-1.1-0.8-1.8-1.1c-0.7-0.3-1.6-0.4-2.6-0.4
		c-1,0-1.8,0.1-2.5,0.3c-0.7,0.2-1.3,0.5-1.7,0.9c-0.5,0.4-0.8,0.8-1,1.4c-0.2,0.5-0.3,1.1-0.3,1.7c0,1.2,0.5,2.1,1.6,2.9
		c1.1,0.8,2.8,1.5,5,2.1c1.8,0.5,3.3,1.1,4.6,1.7c1.3,0.6,2.4,1.3,3.2,2.1s1.5,1.7,1.9,2.7c0.4,1,0.6,2.1,0.6,3.4
		c0,1.3-0.3,2.5-0.8,3.5c-0.5,1-1.3,1.9-2.2,2.7c-1,0.7-2.1,1.3-3.5,1.7s-2.9,0.6-4.6,0.6c-1.5,0-3-0.2-4.4-0.6s-2.8-1-3.9-1.8
		c-1.2-0.8-2.1-1.8-2.8-3.1c-0.7-1.2-1.1-2.7-1.1-4.3h5.4c0,1,0.2,1.8,0.5,2.5c0.3,0.7,0.8,1.3,1.4,1.7c0.6,0.4,1.3,0.8,2.2,1
		c0.8,0.2,1.7,0.3,2.7,0.3c1.9,0,3.3-0.4,4.3-1.1C249.9,35.5,250.4,34.5,250.4,33.2z"/>
</g>
<g>
	<polygon fill="#FFFFFF" points="10.9,31.4 13.3,35.5 19.8,31.7 23.2,29.8 23.2,33.6 23.2,41.2 27.9,41.2 27.9,33.6 27.9,29.8 
		31.3,31.7 37.8,35.5 40.2,31.4 33.6,27.6 30.3,25.6 33.6,23.7 40.2,19.9 37.8,15.8 31.3,19.6 27.9,21.5 27.9,17.7 27.9,10.1 
		23.2,10.1 23.2,17.7 23.2,21.5 19.8,19.6 13.3,15.8 10.9,19.9 17.4,23.7 20.8,25.6 17.4,27.6 	"/>
</g>
</svg>
